<?xml version="1.0" standalone="no"?>
<!DOCTYPE svg PUBLIC "-//W3C//DTD SVG 20010904//EN"
 "http://www.w3.org/TR/2001/REC-SVG-20010904/DTD/svg10.dtd">
<svg version="1.0" xmlns="http://www.w3.org/2000/svg"
 width="800.000000pt" height="800.000000pt" viewBox="0 0 800.000000 800.000000"
 preserveAspectRatio="xMidYMid meet">
<metadata>
Created by potrace 1.14, written by Peter Selinger 2001-2017
</metadata>
<g transform="translate(0.000000,800.000000) scale(0.100000,-0.100000)"
fill="#000000" stroke="none">
<path d="M5880 7520 l0 -280 -80 0 -80 0 0 -100 0 -100 -80 0 -80 0 0 -220 0
-220 -80 0 -80 0 0 -80 0 -80 -80 0 -80 0 0 -240 0 -240 -100 0 -100 0 0 -60
0 -60 -140 0 -140 0 0 220 c0 213 1 220 20 220 13 0 20 -7 20 -20 0 -13 7 -20
20 -20 18 0 20 -7 20 -60 0 -53 -2 -60 -20 -60 -13 0 -20 -7 -20 -20 0 -13 7
-20 20 -20 13 0 20 -7 20 -20 0 -13 -7 -20 -20 -20 -13 0 -20 -7 -20 -20 0
-18 7 -20 60 -20 53 0 60 2 60 20 0 13 -7 20 -20 20 -13 0 -20 7 -20 20 0 13
7 20 20 20 13 0 20 7 20 20 0 13 -7 20 -20 20 -18 0 -20 7 -20 60 0 53 2 60
20 60 19 0 20 7 20 120 0 113 1 120 20 120 18 0 20 7 20 60 l0 60 -60 0 -60 0
0 80 0 80 -40 0 c-33 0 -40 3 -40 20 0 18 -7 20 -60 20 -53 0 -60 2 -60 20 0
13 -7 20 -20 20 -13 0 -20 7 -20 20 0 13 -7 20 -20 20 -13 0 -20 7 -20 20 0
13 -7 20 -20 20 -13 0 -20 7 -20 20 0 13 -7 20 -20 20 -13 0 -20 7 -20 20 0
13 -7 20 -20 20 -13 0 -20 7 -20 20 0 13 -7 20 -20 20 -13 0 -20 7 -20 20 0
19 -7 20 -260 20 -253 0 -260 -1 -260 -20 0 -13 -7 -20 -20 -20 -13 0 -20 -7
-20 -20 0 -13 -7 -20 -20 -20 -13 0 -20 -7 -20 -20 0 -13 -7 -20 -20 -20 -13
0 -20 -7 -20 -20 0 -13 -7 -20 -20 -20 -13 0 -20 -7 -20 -20 0 -13 -7 -20 -20
-20 -13 0 -20 -7 -20 -20 0 -13 -7 -20 -20 -20 -13 0 -20 -7 -20 -20 0 -18 -7
-20 -60 -20 -53 0 -60 -2 -60 -20 0 -17 -7 -20 -40 -20 l-40 0 0 -80 0 -80
-60 0 -60 0 0 -60 c0 -53 2 -60 20 -60 13 0 20 -7 20 -20 0 -19 -7 -20 -120
-20 l-120 0 0 120 0 120 -60 0 -60 0 0 -120 0 -120 -180 0 c-173 0 -180 1
-180 20 0 13 -7 20 -20 20 -13 0 -20 7 -20 20 0 13 -7 20 -20 20 -13 0 -20 7
-20 20 0 13 -7 20 -20 20 -13 0 -20 7 -20 20 0 13 -7 20 -20 20 -13 0 -20 7
-20 20 0 13 -7 20 -20 20 -13 0 -20 7 -20 20 0 13 -7 20 -20 20 -13 0 -20 7
-20 20 0 13 -7 20 -20 20 -13 0 -20 7 -20 20 0 13 7 20 20 20 18 0 20 7 20 60
l0 60 -60 0 -60 0 0 40 0 40 -60 0 c-53 0 -60 -2 -60 -20 0 -18 -7 -20 -60
-20 -53 0 -60 2 -60 20 0 18 -7 20 -80 20 l-80 0 0 100 c0 93 -1 100 -20 100
-19 0 -20 7 -20 120 l0 120 -40 0 -40 0 0 -120 c0 -113 -1 -120 -20 -120 -19
0 -20 -7 -20 -100 0 -93 -1 -100 -20 -100 -19 0 -20 -7 -20 -200 0 -193 -1
-200 -20 -200 -13 0 -20 -7 -20 -20 0 -13 -7 -20 -20 -20 -13 0 -20 -7 -20
-20 0 -13 -7 -20 -20 -20 -13 0 -20 -7 -20 -20 0 -13 -7 -20 -20 -20 -13 0
-20 -7 -20 -20 0 -13 -7 -20 -20 -20 -13 0 -20 -7 -20 -20 0 -13 -7 -20 -20
-20 -13 0 -20 -7 -20 -20 0 -13 -7 -20 -20 -20 -13 0 -20 -7 -20 -20 0 -13 -7
-20 -20 -20 -13 0 -20 -7 -20 -20 0 -13 -7 -20 -20 -20 -13 0 -20 -7 -20 -20
0 -19 -7 -20 -200 -20 l-200 0 0 60 0 60 -80 0 -80 0 0 60 0 60 -60 0 -60 0 0
260 c0 253 -1 260 -20 260 -19 0 -20 7 -20 100 0 93 -1 100 -20 100 -19 0 -20
7 -20 120 l0 120 -40 0 -40 0 0 -120 c0 -113 -1 -120 -20 -120 -19 0 -20 -7
-20 -100 0 -93 -1 -100 -20 -100 -20 0 -20 -7 -20 -1540 l0 -1540 -140 0
c-133 0 -140 -1 -140 -20 0 -13 -7 -20 -20 -20 -20 0 -20 -7 -20 -1640 0
-1633 0 -1640 20 -1640 13 0 20 -7 20 -20 0 -19 7 -20 180 -20 l180 0 0 60 0
60 40 0 c33 0 40 -3 40 -20 0 -13 -7 -20 -20 -20 -13 0 -20 -7 -20 -20 0 -13
7 -20 20 -20 13 0 20 -7 20 -20 0 -13 -7 -20 -20 -20 -13 0 -20 -7 -20 -20 0
-13 7 -20 20 -20 13 0 20 -7 20 -20 0 -13 -7 -20 -20 -20 -13 0 -20 -7 -20
-20 0 -13 7 -20 20 -20 13 0 20 -7 20 -20 0 -13 -7 -20 -20 -20 -13 0 -20 -7
-20 -20 0 -13 7 -20 20 -20 13 0 20 -7 20 -20 0 -13 -7 -20 -20 -20 -13 0 -20
-7 -20 -20 0 -13 7 -20 20 -20 13 0 20 7 20 20 0 13 7 20 20 20 17 0 20 -7 20
-40 l0 -40 3400 0 3400 0 0 40 c0 33 3 40 20 40 13 0 20 -7 20 -20 0 -13 7
-20 20 -20 13 0 20 7 20 20 0 13 -7 20 -20 20 -13 0 -20 7 -20 20 0 13 7 20
20 20 18 0 20 7 20 60 0 53 -2 60 -20 60 -13 0 -20 7 -20 20 0 13 7 20 20 20
13 0 20 7 20 20 0 13 -7 20 -20 20 -13 0 -20 7 -20 20 0 13 7 20 20 20 13 0
20 7 20 20 0 13 -7 20 -20 20 -13 0 -20 7 -20 20 0 13 7 20 20 20 13 0 20 7
20 20 0 13 -7 20 -20 20 -13 0 -20 7 -20 20 0 13 7 20 20 20 13 0 20 7 20 20
0 13 -7 20 -20 20 -13 0 -20 7 -20 20 0 13 7 20 20 20 13 0 20 7 20 20 0 13
-7 20 -20 20 -13 0 -20 7 -20 20 0 13 7 20 20 20 13 0 20 7 20 20 0 13 -7 20
-20 20 -13 0 -20 7 -20 20 0 13 7 20 20 20 13 0 20 7 20 20 0 13 -7 20 -20 20
-13 0 -20 7 -20 20 0 13 7 20 20 20 13 0 20 7 20 20 0 13 -7 20 -20 20 -13 0
-20 7 -20 20 0 13 7 20 20 20 13 0 20 7 20 20 0 13 -7 20 -20 20 -13 0 -20 7
-20 20 0 13 7 20 20 20 13 0 20 7 20 20 0 13 -7 20 -20 20 -13 0 -20 7 -20 20
0 13 7 20 20 20 13 0 20 7 20 20 0 13 -7 20 -20 20 -13 0 -20 7 -20 20 0 13 7
20 20 20 13 0 20 7 20 20 0 13 -7 20 -20 20 -13 0 -20 7 -20 20 0 13 7 20 20
20 13 0 20 7 20 20 0 13 -7 20 -20 20 -13 0 -20 7 -20 20 0 13 7 20 20 20 13
0 20 7 20 20 0 13 -7 20 -20 20 -13 0 -20 7 -20 20 0 13 7 20 20 20 13 0 20 7
20 20 0 13 -7 20 -20 20 -13 0 -20 7 -20 20 0 13 7 20 20 20 13 0 20 7 20 20
0 13 -7 20 -20 20 -13 0 -20 7 -20 20 0 13 7 20 20 20 13 0 20 7 20 20 0 13
-7 20 -20 20 -13 0 -20 7 -20 20 0 13 7 20 20 20 13 0 20 7 20 20 0 13 -7 20
-20 20 -13 0 -20 7 -20 20 0 13 7 20 20 20 13 0 20 7 20 20 0 13 -7 20 -20 20
-13 0 -20 7 -20 20 0 13 7 20 20 20 13 0 20 7 20 20 0 13 -7 20 -20 20 -13 0
-20 7 -20 20 0 13 7 20 20 20 13 0 20 7 20 20 0 13 -7 20 -20 20 -13 0 -20 7
-20 20 0 13 7 20 20 20 13 0 20 7 20 20 0 13 -7 20 -20 20 -13 0 -20 7 -20 20
0 13 7 20 20 20 13 0 20 7 20 20 0 13 -7 20 -20 20 -13 0 -20 7 -20 20 0 13 7
20 20 20 13 0 20 7 20 20 0 13 -7 20 -20 20 -13 0 -20 7 -20 20 0 13 7 20 20
20 13 0 20 7 20 20 0 13 -7 20 -20 20 -13 0 -20 7 -20 20 0 13 7 20 20 20 13
0 20 7 20 20 0 13 -7 20 -20 20 -13 0 -20 7 -20 20 0 13 7 20 20 20 13 0 20 7
20 20 0 13 -7 20 -20 20 -13 0 -20 7 -20 20 0 13 7 20 20 20 13 0 20 7 20 20
0 13 -7 20 -20 20 -13 0 -20 7 -20 20 0 13 7 20 20 20 13 0 20 7 20 20 0 13
-7 20 -20 20 -13 0 -20 7 -20 20 0 13 7 20 20 20 13 0 20 7 20 20 0 13 -7 20
-20 20 -13 0 -20 7 -20 20 0 13 7 20 20 20 13 0 20 7 20 20 0 13 -7 20 -20 20
-13 0 -20 7 -20 20 0 13 7 20 20 20 13 0 20 7 20 20 0 13 -7 20 -20 20 -13 0
-20 7 -20 20 0 13 7 20 20 20 13 0 20 7 20 20 0 13 -7 20 -20 20 -13 0 -20 7
-20 20 0 13 7 20 20 20 13 0 20 7 20 20 0 13 -7 20 -20 20 -13 0 -20 7 -20 20
0 13 7 20 20 20 13 0 20 7 20 20 0 13 -7 20 -20 20 -13 0 -20 7 -20 20 0 13 7
20 20 20 13 0 20 7 20 20 0 13 -7 20 -20 20 -13 0 -20 7 -20 20 0 13 7 20 20
20 13 0 20 7 20 20 0 13 -7 20 -20 20 -13 0 -20 7 -20 20 0 13 7 20 20 20 13
0 20 7 20 20 0 13 -7 20 -20 20 -13 0 -20 7 -20 20 0 13 7 20 20 20 13 0 20 7
20 20 0 13 -7 20 -20 20 -13 0 -20 7 -20 20 0 13 7 20 20 20 13 0 20 7 20 20
0 13 7 20 20 20 20 0 20 -7 20 -1560 l0 -1560 180 0 c173 0 180 1 180 20 0 13
7 20 20 20 20 0 20 7 20 1640 0 1633 0 1640 -20 1640 -13 0 -20 7 -20 20 0 19
-7 20 -120 20 -113 0 -120 1 -120 20 0 13 -7 20 -20 20 -13 0 -20 7 -20 20 0
13 -7 20 -20 20 -13 0 -20 7 -20 20 0 13 -7 20 -20 20 -13 0 -20 7 -20 20 0
13 -7 20 -20 20 -13 0 -20 7 -20 20 0 13 -7 20 -20 20 -20 0 -20 7 -20 280 l0
280 180 0 180 0 0 100 0 100 -60 0 -60 0 0 80 0 80 -40 0 -40 0 0 40 0 40 -60
0 -60 0 0 40 c0 33 -3 40 -20 40 -18 0 -20 7 -20 80 l0 80 60 0 60 0 0 320 c0
313 0 320 20 320 20 0 20 7 20 320 l0 320 60 0 60 0 0 100 0 100 40 0 40 0 0
120 c0 113 1 120 20 120 17 0 20 7 20 40 l0 40 -40 0 c-33 0 -40 3 -40 20 0
13 -7 20 -20 20 -13 0 -20 -7 -20 -20 0 -19 -7 -20 -160 -20 -153 0 -160 1
-160 20 0 17 -7 20 -40 20 -33 0 -40 3 -40 20 0 13 -7 20 -20 20 -13 0 -20 7
-20 20 0 13 -7 20 -20 20 -13 0 -20 7 -20 20 0 13 -7 20 -20 20 -13 0 -20 7
-20 20 0 13 -7 20 -20 20 -13 0 -20 7 -20 20 0 13 -7 20 -20 20 -18 0 -20 7
-20 60 l0 60 -140 0 -140 0 0 -60 c0 -53 -2 -60 -20 -60 -13 0 -20 -7 -20 -20
0 -13 -7 -20 -20 -20 -13 0 -20 -7 -20 -20 0 -13 -7 -20 -20 -20 -13 0 -20 -7
-20 -20 0 -13 -7 -20 -20 -20 -13 0 -20 -7 -20 -20 0 -13 -7 -20 -20 -20 -13
0 -20 -7 -20 -20 0 -17 -7 -20 -40 -20 -33 0 -40 -3 -40 -20 0 -19 -7 -20
-120 -20 l-120 0 0 60 0 60 -80 0 -80 0 0 280 0 280 -140 0 -140 0 0 -280z
m-2360 -1060 c0 -13 -7 -20 -20 -20 -13 0 -20 7 -20 20 0 13 7 20 20 20 13 0
20 -7 20 -20z m1280 0 c0 -13 -7 -20 -20 -20 -13 0 -20 7 -20 20 0 13 7 20 20
20 13 0 20 -7 20 -20z m0 -100 c0 -33 -3 -40 -20 -40 -17 0 -20 7 -20 40 0 33
3 40 20 40 17 0 20 -7 20 -40z m-1400 -200 c0 -33 -3 -40 -20 -40 -13 0 -20
-7 -20 -20 0 -13 7 -20 20 -20 13 0 20 -7 20 -20 0 -13 -7 -20 -20 -20 -13 0
-20 -7 -20 -20 0 -18 7 -20 60 -20 53 0 60 2 60 20 0 13 -7 20 -20 20 -13 0
-20 7 -20 20 0 13 7 20 20 20 13 0 20 7 20 20 0 13 -7 20 -20 20 -17 0 -20 7
-20 40 l0 40 40 0 40 0 0 -180 0 -180 -200 0 -200 0 0 180 0 180 140 0 140 0
0 -40z m1400 -380 c0 -13 -7 -20 -20 -20 -13 0 -20 7 -20 20 0 13 7 20 20 20
13 0 20 -7 20 -20z m0 -100 c0 -33 -3 -40 -20 -40 -17 0 -20 7 -20 40 0 33 3
40 20 40 17 0 20 -7 20 -40z m-3320 -540 l0 -60 -60 0 -60 0 0 60 0 60 60 0
60 0 0 -60z m160 0 l0 -60 -60 0 -60 0 0 60 0 60 60 0 60 0 0 -60z m200 0 l0
-60 -60 0 -60 0 0 60 0 60 60 0 60 0 0 -60z m160 0 l0 -60 -60 0 -60 0 0 60 0
60 60 0 60 0 0 -60z m360 0 l0 -60 -60 0 -60 0 0 60 0 60 60 0 60 0 0 -60z
m160 0 l0 -60 -60 0 -60 0 0 60 0 60 60 0 60 0 0 -60z m-1040 -200 l0 -100
-60 0 -60 0 0 100 0 100 60 0 60 0 0 -100z m160 0 l0 -100 -60 0 -60 0 0 100
0 100 60 0 60 0 0 -100z m200 0 l0 -100 -60 0 -60 0 0 100 0 100 60 0 60 0 0
-100z m160 0 l0 -100 -60 0 -60 0 0 100 0 100 60 0 60 0 0 -100z m360 0 l0
-100 -60 0 -60 0 0 100 0 100 60 0 60 0 0 -100z m160 0 l0 -100 -60 0 -60 0 0
100 0 100 60 0 60 0 0 -100z m2800 -540 c0 -33 3 -40 20 -40 18 0 20 -7 20
-60 l0 -60 -60 0 -60 0 0 100 0 100 40 0 40 0 0 -40z m200 -60 l0 -100 -60 0
-60 0 0 60 c0 53 2 60 20 60 17 0 20 7 20 40 l0 40 40 0 40 0 0 -100z m-3520
-200 l0 -60 -60 0 -60 0 0 60 0 60 60 0 60 0 0 -60z m160 0 l0 -60 -60 0 -60
0 0 60 0 60 60 0 60 0 0 -60z m200 0 l0 -60 -60 0 -60 0 0 60 0 60 60 0 60 0
0 -60z m160 0 l0 -60 -60 0 -60 0 0 60 0 60 60 0 60 0 0 -60z m2840 -40 l0
-100 -60 0 -60 0 0 100 0 100 60 0 60 0 0 -100z m160 0 l0 -100 -60 0 -60 0 0
100 0 100 60 0 60 0 0 -100z m-3520 -160 l0 -100 -60 0 -60 0 0 100 0 100 60
0 60 0 0 -100z m160 0 l0 -100 -60 0 -60 0 0 100 0 100 60 0 60 0 0 -100z
m200 0 l0 -100 -60 0 -60 0 0 100 0 100 60 0 60 0 0 -100z m160 0 l0 -100 -60
0 -60 0 0 100 0 100 60 0 60 0 0 -100z m-2000 -320 c0 -13 7 -20 20 -20 13 0
20 -7 20 -20 0 -13 7 -20 20 -20 13 0 20 -7 20 -20 0 -13 -7 -20 -20 -20 -13
0 -20 -7 -20 -20 0 -13 7 -20 20 -20 13 0 20 -7 20 -20 0 -13 -7 -20 -20 -20
-13 0 -20 -7 -20 -20 0 -13 7 -20 20 -20 13 0 20 -7 20 -20 0 -13 -7 -20 -20
-20 -13 0 -20 -7 -20 -20 0 -13 7 -20 20 -20 13 0 20 -7 20 -20 0 -13 -7 -20
-20 -20 -13 0 -20 -7 -20 -20 0 -13 7 -20 20 -20 13 0 20 -7 20 -20 0 -13 -7
-20 -20 -20 -13 0 -20 -7 -20 -20 0 -13 7 -20 20 -20 13 0 20 -7 20 -20 0 -13
-7 -20 -20 -20 -13 0 -20 -7 -20 -20 0 -13 7 -20 20 -20 13 0 20 -7 20 -20 0
-13 -7 -20 -20 -20 -13 0 -20 -7 -20 -20 0 -13 7 -20 20 -20 13 0 20 -7 20
-20 0 -13 -7 -20 -20 -20 -13 0 -20 -7 -20 -20 0 -13 7 -20 20 -20 13 0 20 -7
20 -20 0 -13 -7 -20 -20 -20 -13 0 -20 -7 -20 -20 0 -13 7 -20 20 -20 13 0 20
-7 20 -20 0 -13 -7 -20 -20 -20 -13 0 -20 -7 -20 -20 0 -13 7 -20 20 -20 13 0
20 -7 20 -20 0 -13 -7 -20 -20 -20 -13 0 -20 -7 -20 -20 0 -13 7 -20 20 -20
13 0 20 -7 20 -20 0 -13 -7 -20 -20 -20 -13 0 -20 -7 -20 -20 0 -13 7 -20 20
-20 13 0 20 -7 20 -20 0 -13 -7 -20 -20 -20 -13 0 -20 -7 -20 -20 0 -13 7 -20
20 -20 13 0 20 -7 20 -20 0 -13 -7 -20 -20 -20 -13 0 -20 -7 -20 -20 0 -13 7
-20 20 -20 13 0 20 -7 20 -20 0 -13 -7 -20 -20 -20 -13 0 -20 -7 -20 -20 0
-13 7 -20 20 -20 13 0 20 -7 20 -20 0 -13 -7 -20 -20 -20 -13 0 -20 -7 -20
-20 0 -13 7 -20 20 -20 13 0 20 -7 20 -20 0 -13 -7 -20 -20 -20 -13 0 -20 -7
-20 -20 0 -13 7 -20 20 -20 13 0 20 -7 20 -20 0 -13 -7 -20 -20 -20 -13 0 -20
-7 -20 -20 0 -13 7 -20 20 -20 13 0 20 -7 20 -20 0 -13 -7 -20 -20 -20 -13 0
-20 -7 -20 -20 0 -13 7 -20 20 -20 13 0 20 -7 20 -20 0 -13 -7 -20 -20 -20
-13 0 -20 -7 -20 -20 0 -13 7 -20 20 -20 13 0 20 -7 20 -20 0 -13 -7 -20 -20
-20 -13 0 -20 -7 -20 -20 0 -13 7 -20 20 -20 13 0 20 -7 20 -20 0 -13 -7 -20
-20 -20 -13 0 -20 -7 -20 -20 0 -13 7 -20 20 -20 13 0 20 -7 20 -20 0 -13 -7
-20 -20 -20 -13 0 -20 -7 -20 -20 0 -13 7 -20 20 -20 13 0 20 -7 20 -20 0 -13
-7 -20 -20 -20 -13 0 -20 -7 -20 -20 0 -13 7 -20 20 -20 13 0 20 -7 20 -20 0
-13 -7 -20 -20 -20 -13 0 -20 -7 -20 -20 0 -13 7 -20 20 -20 13 0 20 -7 20
-20 0 -13 -7 -20 -20 -20 -13 0 -20 -7 -20 -20 0 -13 7 -20 20 -20 13 0 20 -7
20 -20 0 -13 -7 -20 -20 -20 -13 0 -20 -7 -20 -20 0 -13 7 -20 20 -20 13 0 20
-7 20 -20 0 -13 -7 -20 -20 -20 -13 0 -20 -7 -20 -20 0 -13 7 -20 20 -20 13 0
20 -7 20 -20 0 -13 -7 -20 -20 -20 -13 0 -20 -7 -20 -20 0 -13 7 -20 20 -20
13 0 20 -7 20 -20 0 -13 -7 -20 -20 -20 -13 0 -20 -7 -20 -20 0 -13 7 -20 20
-20 13 0 20 -7 20 -20 0 -13 -7 -20 -20 -20 -13 0 -20 -7 -20 -20 0 -13 7 -20
20 -20 13 0 20 -7 20 -20 0 -13 -7 -20 -20 -20 -13 0 -20 -7 -20 -20 0 -13 7
-20 20 -20 13 0 20 -7 20 -20 0 -13 -7 -20 -20 -20 -13 0 -20 -7 -20 -20 0
-13 7 -20 20 -20 13 0 20 -7 20 -20 0 -13 -7 -20 -20 -20 -13 0 -20 -7 -20
-20 0 -13 7 -20 20 -20 13 0 20 -7 20 -20 0 -13 -7 -20 -20 -20 -13 0 -20 -7
-20 -20 0 -13 7 -20 20 -20 13 0 20 -7 20 -20 0 -13 -7 -20 -20 -20 -13 0 -20
-7 -20 -20 0 -13 7 -20 20 -20 13 0 20 -7 20 -20 0 -13 -7 -20 -20 -20 -13 0
-20 7 -20 20 0 17 -7 20 -40 20 l-40 0 0 1480 c0 1473 0 1480 20 1480 13 0 20
-7 20 -20z m6920 -80 c0 -13 -7 -20 -20 -20 -13 0 -20 7 -20 20 0 13 7 20 20
20 13 0 20 -7 20 -20z m0 -80 c0 -13 -7 -20 -20 -20 -13 0 -20 7 -20 20 0 13
7 20 20 20 13 0 20 -7 20 -20z m-6680 -40 c0 -13 -7 -20 -20 -20 -13 0 -20 -7
-20 -20 0 -13 -7 -20 -20 -20 -13 0 -20 7 -20 20 0 13 7 20 20 20 13 0 20 7
20 20 0 13 7 20 20 20 13 0 20 -7 20 -20z m6560 0 c0 -13 -7 -20 -20 -20 -13
0 -20 -7 -20 -20 0 -13 -7 -20 -20 -20 -13 0 -20 7 -20 20 0 13 7 20 20 20 13
0 20 7 20 20 0 13 7 20 20 20 13 0 20 -7 20 -20z m-120 -40 c0 -13 -7 -20 -20
-20 -13 0 -20 7 -20 20 0 13 7 20 20 20 13 0 20 -7 20 -20z m240 0 c0 -13 -7
-20 -20 -20 -13 0 -20 7 -20 20 0 13 7 20 20 20 13 0 20 -7 20 -20z m0 -80 c0
-13 -7 -20 -20 -20 -13 0 -20 7 -20 20 0 13 7 20 20 20 13 0 20 -7 20 -20z m0
-80 c0 -13 -7 -20 -20 -20 -13 0 -20 7 -20 20 0 13 7 20 20 20 13 0 20 -7 20
-20z m0 -80 c0 -13 -7 -20 -20 -20 -13 0 -20 7 -20 20 0 13 7 20 20 20 13 0
20 -7 20 -20z m0 -80 c0 -13 -7 -20 -20 -20 -13 0 -20 7 -20 20 0 13 7 20 20
20 13 0 20 -7 20 -20z m0 -80 c0 -13 -7 -20 -20 -20 -13 0 -20 7 -20 20 0 13
7 20 20 20 13 0 20 -7 20 -20z m-5200 -40 c0 -13 7 -20 20 -20 13 0 20 -7 20
-20 0 -13 7 -20 20 -20 13 0 20 -7 20 -20 0 -13 7 -20 20 -20 13 0 20 -7 20
-20 0 -13 7 -20 20 -20 18 0 20 -7 20 -80 l0 -80 80 0 c73 0 80 -2 80 -20 0
-13 7 -20 20 -20 13 0 20 -7 20 -20 0 -13 7 -20 20 -20 13 0 20 -7 20 -20 0
-13 7 -20 20 -20 13 0 20 -7 20 -20 0 -13 7 -20 20 -20 18 0 20 -7 20 -80 l0
-80 80 0 80 0 0 160 0 160 160 0 160 0 0 160 0 160 320 0 c313 0 320 0 320
-20 0 -13 7 -20 20 -20 13 0 20 -7 20 -20 0 -13 7 -20 20 -20 13 0 20 -7 20
-20 0 -13 7 -20 20 -20 13 0 20 -7 20 -20 0 -13 7 -20 20 -20 20 0 20 -7 20
-960 l0 -960 -320 0 c-313 0 -320 0 -320 20 0 13 -7 20 -20 20 -13 0 -20 7
-20 20 0 13 -7 20 -20 20 -13 0 -20 7 -20 20 0 13 -7 20 -20 20 -13 0 -20 7
-20 20 0 13 -7 20 -20 20 -20 0 -20 7 -20 400 l0 400 -80 0 -80 0 0 -160 0
-160 -160 0 c-153 0 -160 1 -160 20 0 13 -7 20 -20 20 -13 0 -20 7 -20 20 0
13 -7 20 -20 20 -13 0 -20 7 -20 20 0 13 -7 20 -20 20 -13 0 -20 7 -20 20 0
13 -7 20 -20 20 -18 0 -20 7 -20 80 l0 80 -80 0 -80 0 0 -480 0 -480 -320 0
c-313 0 -320 0 -320 20 0 13 -7 20 -20 20 -13 0 -20 7 -20 20 0 13 -7 20 -20
20 -13 0 -20 7 -20 20 0 13 -7 20 -20 20 -13 0 -20 7 -20 20 0 13 -7 20 -20
20 -20 0 -20 7 -20 960 l0 960 320 0 c313 0 320 0 320 -20z m3960 -300 c0
-313 0 -320 -20 -320 -13 0 -20 -7 -20 -20 0 -13 -7 -20 -20 -20 -13 0 -20 -7
-20 -20 0 -13 -7 -20 -20 -20 -13 0 -20 -7 -20 -20 0 -13 -7 -20 -20 -20 -13
0 -20 -7 -20 -20 0 -20 -7 -20 -300 -20 l-300 0 0 160 0 160 -100 0 -100 0 0
-560 0 -560 80 0 80 0 0 80 c0 73 2 80 20 80 13 0 20 7 20 20 0 13 7 20 20 20
13 0 20 7 20 20 0 13 7 20 20 20 13 0 20 7 20 20 0 13 7 20 20 20 13 0 20 7
20 20 0 20 7 20 320 20 l320 0 0 -320 c0 -313 0 -320 -20 -320 -13 0 -20 -7
-20 -20 0 -13 -7 -20 -20 -20 -13 0 -20 -7 -20 -20 0 -13 -7 -20 -20 -20 -13
0 -20 -7 -20 -20 0 -13 -7 -20 -20 -20 -13 0 -20 -7 -20 -20 0 -20 -7 -20
-800 -20 l-800 0 0 960 c0 953 0 960 20 960 13 0 20 7 20 20 0 13 7 20 20 20
13 0 20 7 20 20 0 13 7 20 20 20 13 0 20 7 20 20 0 13 7 20 20 20 13 0 20 7
20 20 0 20 7 20 800 20 l800 0 0 -320z m1240 260 c0 -13 -7 -20 -20 -20 -13 0
-20 7 -20 20 0 13 7 20 20 20 13 0 20 -7 20 -20z m0 -80 c0 -13 -7 -20 -20
-20 -13 0 -20 7 -20 20 0 13 7 20 20 20 13 0 20 -7 20 -20z m0 -80 c0 -13 -7
-20 -20 -20 -13 0 -20 7 -20 20 0 13 7 20 20 20 13 0 20 -7 20 -20z m0 -80 c0
-13 -7 -20 -20 -20 -13 0 -20 7 -20 20 0 13 7 20 20 20 13 0 20 -7 20 -20z m0
-80 c0 -13 -7 -20 -20 -20 -13 0 -20 7 -20 20 0 13 7 20 20 20 13 0 20 -7 20
-20z m0 -80 c0 -13 -7 -20 -20 -20 -13 0 -20 7 -20 20 0 13 7 20 20 20 13 0
20 -7 20 -20z m0 -80 c0 -13 -7 -20 -20 -20 -13 0 -20 7 -20 20 0 13 7 20 20
20 13 0 20 -7 20 -20z m0 -80 c0 -13 -7 -20 -20 -20 -13 0 -20 7 -20 20 0 13
7 20 20 20 13 0 20 -7 20 -20z m0 -80 c0 -13 -7 -20 -20 -20 -13 0 -20 7 -20
20 0 13 7 20 20 20 13 0 20 -7 20 -20z m0 -80 c0 -13 -7 -20 -20 -20 -13 0
-20 7 -20 20 0 13 7 20 20 20 13 0 20 -7 20 -20z m0 -80 c0 -13 -7 -20 -20
-20 -13 0 -20 7 -20 20 0 13 7 20 20 20 13 0 20 -7 20 -20z m0 -80 c0 -13 -7
-20 -20 -20 -13 0 -20 7 -20 20 0 13 7 20 20 20 13 0 20 -7 20 -20z m0 -80 c0
-13 -7 -20 -20 -20 -13 0 -20 7 -20 20 0 13 7 20 20 20 13 0 20 -7 20 -20z m0
-80 c0 -13 -7 -20 -20 -20 -13 0 -20 7 -20 20 0 13 7 20 20 20 13 0 20 -7 20
-20z m0 -80 c0 -13 -7 -20 -20 -20 -13 0 -20 7 -20 20 0 13 7 20 20 20 13 0
20 -7 20 -20z m0 -80 c0 -13 -7 -20 -20 -20 -13 0 -20 7 -20 20 0 13 7 20 20
20 13 0 20 -7 20 -20z m0 -80 c0 -13 -7 -20 -20 -20 -13 0 -20 7 -20 20 0 13
7 20 20 20 13 0 20 -7 20 -20z m0 -80 c0 -13 -7 -20 -20 -20 -13 0 -20 7 -20
20 0 13 7 20 20 20 13 0 20 -7 20 -20z m0 -80 c0 -13 -7 -20 -20 -20 -13 0
-20 7 -20 20 0 13 7 20 20 20 13 0 20 -7 20 -20z m0 -80 c0 -13 -7 -20 -20
-20 -13 0 -20 7 -20 20 0 13 7 20 20 20 13 0 20 -7 20 -20z m0 -80 c0 -13 -7
-20 -20 -20 -13 0 -20 7 -20 20 0 13 7 20 20 20 13 0 20 -7 20 -20z m0 -80 c0
-13 -7 -20 -20 -20 -13 0 -20 7 -20 20 0 13 7 20 20 20 13 0 20 -7 20 -20z m0
-80 c0 -13 -7 -20 -20 -20 -13 0 -20 7 -20 20 0 13 7 20 20 20 13 0 20 -7 20
-20z m0 -80 c0 -13 -7 -20 -20 -20 -13 0 -20 7 -20 20 0 13 7 20 20 20 13 0
20 -7 20 -20z m0 -80 c0 -13 -7 -20 -20 -20 -13 0 -20 7 -20 20 0 13 7 20 20
20 13 0 20 -7 20 -20z m0 -80 c0 -13 -7 -20 -20 -20 -13 0 -20 7 -20 20 0 13
7 20 20 20 13 0 20 -7 20 -20z m0 -80 c0 -13 -7 -20 -20 -20 -13 0 -20 7 -20
20 0 13 7 20 20 20 13 0 20 -7 20 -20z m0 -80 c0 -13 -7 -20 -20 -20 -13 0
-20 7 -20 20 0 13 7 20 20 20 13 0 20 -7 20 -20z m0 -80 c0 -13 -7 -20 -20
-20 -13 0 -20 7 -20 20 0 13 7 20 20 20 13 0 20 -7 20 -20z m-6840 -80 c0 -13
-7 -20 -20 -20 -13 0 -20 7 -20 20 0 13 7 20 20 20 13 0 20 -7 20 -20z m6840
0 c0 -13 -7 -20 -20 -20 -13 0 -20 7 -20 20 0 13 7 20 20 20 13 0 20 -7 20
-20z m-6840 -80 c0 -13 -7 -20 -20 -20 -13 0 -20 7 -20 20 0 13 7 20 20 20 13
0 20 -7 20 -20z m6840 0 c0 -13 -7 -20 -20 -20 -13 0 -20 7 -20 20 0 13 7 20
20 20 13 0 20 -7 20 -20z m-6840 -80 c0 -13 -7 -20 -20 -20 -13 0 -20 7 -20
20 0 13 7 20 20 20 13 0 20 -7 20 -20z m6840 0 c0 -13 -7 -20 -20 -20 -13 0
-20 -7 -20 -20 0 -13 -7 -20 -20 -20 -13 0 -20 -7 -20 -20 0 -13 -7 -20 -20
-20 -13 0 -20 7 -20 20 0 13 7 20 20 20 13 0 20 7 20 20 0 13 7 20 20 20 13 0
20 7 20 20 0 13 7 20 20 20 13 0 20 -7 20 -20z m-6760 -40 c0 -13 -7 -20 -20
-20 -13 0 -20 -7 -20 -20 0 -17 -7 -20 -40 -20 -33 0 -40 3 -40 20 0 17 7 20
40 20 33 0 40 3 40 20 0 13 7 20 20 20 13 0 20 -7 20 -20z m6560 0 c0 -13 -7
-20 -20 -20 -13 0 -20 7 -20 20 0 13 7 20 20 20 13 0 20 -7 20 -20z m-6440
-40 c0 -13 -7 -20 -20 -20 -13 0 -20 7 -20 20 0 13 7 20 20 20 13 0 20 -7 20
-20z"/>
<path d="M520 3540 c0 -13 7 -20 20 -20 13 0 20 7 20 20 0 13 -7 20 -20 20
-13 0 -20 -7 -20 -20z"/>
<path d="M520 3460 c0 -13 7 -20 20 -20 13 0 20 7 20 20 0 13 -7 20 -20 20
-13 0 -20 -7 -20 -20z"/>
<path d="M520 3380 c0 -13 7 -20 20 -20 13 0 20 7 20 20 0 13 -7 20 -20 20
-13 0 -20 -7 -20 -20z"/>
<path d="M520 3300 c0 -13 7 -20 20 -20 13 0 20 7 20 20 0 13 -7 20 -20 20
-13 0 -20 -7 -20 -20z"/>
<path d="M520 3220 c0 -13 7 -20 20 -20 13 0 20 7 20 20 0 13 -7 20 -20 20
-13 0 -20 -7 -20 -20z"/>
<path d="M520 3140 c0 -13 7 -20 20 -20 13 0 20 7 20 20 0 13 -7 20 -20 20
-13 0 -20 -7 -20 -20z"/>
<path d="M520 3060 c0 -13 7 -20 20 -20 13 0 20 7 20 20 0 13 -7 20 -20 20
-13 0 -20 -7 -20 -20z"/>
<path d="M520 2980 c0 -13 7 -20 20 -20 13 0 20 7 20 20 0 13 -7 20 -20 20
-13 0 -20 -7 -20 -20z"/>
<path d="M520 2900 c0 -13 7 -20 20 -20 13 0 20 7 20 20 0 13 -7 20 -20 20
-13 0 -20 -7 -20 -20z"/>
<path d="M520 2820 c0 -13 7 -20 20 -20 13 0 20 7 20 20 0 13 -7 20 -20 20
-13 0 -20 -7 -20 -20z"/>
<path d="M520 2740 c0 -13 7 -20 20 -20 13 0 20 7 20 20 0 13 -7 20 -20 20
-13 0 -20 -7 -20 -20z"/>
<path d="M520 2660 c0 -13 7 -20 20 -20 13 0 20 7 20 20 0 13 -7 20 -20 20
-13 0 -20 -7 -20 -20z"/>
<path d="M520 2580 c0 -13 7 -20 20 -20 13 0 20 7 20 20 0 13 -7 20 -20 20
-13 0 -20 -7 -20 -20z"/>
<path d="M520 2500 c0 -13 7 -20 20 -20 13 0 20 7 20 20 0 13 -7 20 -20 20
-13 0 -20 -7 -20 -20z"/>
<path d="M520 2420 c0 -13 7 -20 20 -20 13 0 20 7 20 20 0 13 -7 20 -20 20
-13 0 -20 -7 -20 -20z"/>
<path d="M520 2340 c0 -13 7 -20 20 -20 13 0 20 7 20 20 0 13 -7 20 -20 20
-13 0 -20 -7 -20 -20z"/>
<path d="M520 2260 c0 -13 7 -20 20 -20 13 0 20 7 20 20 0 13 -7 20 -20 20
-13 0 -20 -7 -20 -20z"/>
<path d="M520 2180 c0 -13 7 -20 20 -20 13 0 20 7 20 20 0 13 -7 20 -20 20
-13 0 -20 -7 -20 -20z"/>
<path d="M520 2100 c0 -13 7 -20 20 -20 13 0 20 7 20 20 0 13 -7 20 -20 20
-13 0 -20 -7 -20 -20z"/>
<path d="M520 2020 c0 -13 7 -20 20 -20 13 0 20 7 20 20 0 13 -7 20 -20 20
-13 0 -20 -7 -20 -20z"/>
<path d="M520 1940 c0 -13 7 -20 20 -20 13 0 20 7 20 20 0 13 -7 20 -20 20
-13 0 -20 -7 -20 -20z"/>
<path d="M520 1860 c0 -13 7 -20 20 -20 13 0 20 7 20 20 0 13 -7 20 -20 20
-13 0 -20 -7 -20 -20z"/>
<path d="M520 1780 c0 -13 7 -20 20 -20 13 0 20 7 20 20 0 13 -7 20 -20 20
-13 0 -20 -7 -20 -20z"/>
<path d="M520 1700 c0 -13 7 -20 20 -20 13 0 20 7 20 20 0 13 -7 20 -20 20
-13 0 -20 -7 -20 -20z"/>
<path d="M520 1620 c0 -13 7 -20 20 -20 13 0 20 7 20 20 0 13 -7 20 -20 20
-13 0 -20 -7 -20 -20z"/>
<path d="M520 1540 c0 -13 7 -20 20 -20 13 0 20 7 20 20 0 13 -7 20 -20 20
-13 0 -20 -7 -20 -20z"/>
<path d="M520 1460 c0 -13 7 -20 20 -20 13 0 20 7 20 20 0 13 -7 20 -20 20
-13 0 -20 -7 -20 -20z"/>
<path d="M520 1380 c0 -13 7 -20 20 -20 13 0 20 7 20 20 0 13 -7 20 -20 20
-13 0 -20 -7 -20 -20z"/>
<path d="M520 1300 c0 -13 7 -20 20 -20 13 0 20 7 20 20 0 13 -7 20 -20 20
-13 0 -20 -7 -20 -20z"/>
<path d="M520 1220 c0 -13 7 -20 20 -20 13 0 20 7 20 20 0 13 -7 20 -20 20
-13 0 -20 -7 -20 -20z"/>
<path d="M520 1140 c0 -13 7 -20 20 -20 13 0 20 7 20 20 0 13 -7 20 -20 20
-13 0 -20 -7 -20 -20z"/>
<path d="M520 1060 c0 -13 7 -20 20 -20 13 0 20 7 20 20 0 13 -7 20 -20 20
-13 0 -20 -7 -20 -20z"/>
<path d="M520 980 c0 -13 7 -20 20 -20 13 0 20 7 20 20 0 13 -7 20 -20 20 -13
0 -20 -7 -20 -20z"/>
<path d="M520 900 c0 -13 7 -20 20 -20 13 0 20 7 20 20 0 13 -7 20 -20 20 -13
0 -20 -7 -20 -20z"/>
<path d="M520 820 c0 -13 7 -20 20 -20 13 0 20 7 20 20 0 13 -7 20 -20 20 -13
0 -20 -7 -20 -20z"/>
<path d="M520 740 c0 -13 7 -20 20 -20 13 0 20 7 20 20 0 13 -7 20 -20 20 -13
0 -20 -7 -20 -20z"/>
</g>
</svg>
